<svg xmlns="http://www.w3.org/2000/svg" xmlns:xlink="http://www.w3.org/1999/xlink" version="1.1" x="0px" y="0px" viewBox="0 0 100 125" enable-background="new 0 0 100 100" xml:space="preserve"><ellipse fill="#000000" cx="51.46" cy="37.84" rx="1.798" ry="1.317"/><ellipse fill="#000000" cx="64.2" cy="37.948" rx="1.797" ry="1.318"/><ellipse transform="matrix(-0.0077 -1 1 -0.0077 8.8545 109.0067)" fill="#000000" cx="58.512" cy="50.11" rx="3.739" ry="4.344"/><path fill="#000000" d="M75.459,20.119c-1.204-1.086-2.767-1.673-3.987-0.947c-3.037,1.805-5.056,3.696-5.77,3.309  c-1.672-0.903-11.639-4.252-14.728-1.955c-3.091,2.296-4.199-3.042-7.288-4.062c-3.09-1.021-6.807,3.341-6.529,5.266  c0.305,2.106,2.384,4.821,2.126,7.374c-0.258,2.55-3.982,6.879-2.695,11.982c1.287,5.104,11.448,19.092,14.538,20.368  c3.089,1.275,9.714,1.13,11.994,0c3.038-1.506,10.021-16.286,10.802-19.856c0.891-4.068,1.801-6.928,0.737-9.485  c0,0,1.822-5.117,2.582-7.826c0.352-1.251-0.44-2.882-1.636-4.03l2.142-1.951c1.549,1.97,2.682,4.422,2.323,5.701  c-0.775,2.771-2.229,7.059-2.229,7.059c0.703,2.351,1.102,3.953,1.748,6.669c7.64,32.114,7.112,50.015-4.479,54.714  c-11.594,4.7-18.707,8.094-20.288,3.916c-1.579-4.177-4.14-11.92-0.566-12.688c4.562-0.983,12.738-0.924,15.058-5.474  c3.668-7.199-34.167-10.538-21.583,11.633c4.316,7.604,2.086,8.731,2.086,8.731l-13.836,0.043c0,0-4.395-0.422-5.184-2.771  c-0.791-2.352-13.65-31.473-14.702-47.399S22.681,0.396,41.651,0.136c13.493-0.185,23.121,2.667,30.303,15.887  c0.315-0.13,0.577-0.297,0.878-0.476c1.263-0.75,3.202,0.645,4.765,2.568L75.459,20.119z"/><text x="0" y="115" fill="#000000" font-size="5px" font-weight="bold" font-family="'Helvetica Neue', Helvetica, Arial-Unicode, Arial, Sans-serif">Created by Sean Daw</text><text x="0" y="120" fill="#000000" font-size="5px" font-weight="bold" font-family="'Helvetica Neue', Helvetica, Arial-Unicode, Arial, Sans-serif">from the Noun Project</text></svg>