<?xml version="1.0" standalone="no"?>
<!DOCTYPE svg PUBLIC "-//W3C//DTD SVG 20010904//EN"
 "http://www.w3.org/TR/2001/REC-SVG-20010904/DTD/svg10.dtd">
<svg version="1.0" xmlns="http://www.w3.org/2000/svg"
 width="512.000000pt" height="512.000000pt" viewBox="0 0 512.000000 512.000000"
 preserveAspectRatio="xMidYMid meet">
<metadata>
Created by potrace 1.11, written by Peter Selinger 2001-2013
</metadata>
<g transform="translate(0.000000,512.000000) scale(0.100000,-0.100000)"
fill="#000000" stroke="none">
<path d="M2538 4965 c-2 -2 -57 -5 -123 -9 -66 -3 -131 -8 -145 -10 -14 -3
-43 -7 -65 -10 -35 -4 -90 -15 -161 -30 -389 -83 -795 -291 -1090 -559 -108
-98 -241 -243 -309 -337 -22 -30 -42 -57 -46 -60 -3 -3 -39 -57 -79 -120 -272
-433 -395 -941 -356 -1465 4 -49 9 -97 11 -105 2 -8 6 -37 10 -63 31 -249 148
-585 291 -833 131 -229 365 -504 559 -659 27 -22 56 -46 63 -53 7 -6 64 -45
125 -86 314 -208 648 -334 1032 -388 138 -19 505 -16 645 5 373 58 712 190
1010 395 648 444 1040 1175 1044 1947 2 305 -24 487 -105 755 -45 148 -155
398 -213 483 -14 21 -26 40 -26 43 0 9 -102 157 -154 224 -214 275 -520 527
-817 675 -198 98 -432 179 -611 210 -17 3 -34 8 -37 10 -4 2 -31 6 -61 9 -30
4 -68 8 -85 11 -16 2 -79 7 -140 10 -60 4 -122 8 -137 10 -15 1 -29 1 -30 0z"/>
</g>
</svg>
